<?xml version="1.0" encoding="utf-8"?>
<svg xmlns="http://www.w3.org/2000/svg" version="1.1" width="143" height="66" viewBox="0 0 65535 30310"><svg xmlns:xlink="http://www.w3.org/1999/xlink" version="1.1" id="a" viewBox="0 0 240 111" style="enable-background:new 0 0 240 111;" space="preserve" width="65535" height="30310">
<style type="text/css">
	.st0{fill:#FFFFFF;}
	.st1{fill:#FFC836;}
</style>
<g>
	<g>
		<path class="st0" d="M20.25276,62.45757c-3.31-1.72908-5.90362-4.1457-7.78028-7.25047    c-1.87835-3.1042-2.81696-6.62736-2.81696-10.56895c0-3.94047,0.93861-7.46392,2.81696-10.56895    c1.87666-3.10391,4.47026-5.52139,7.78028-7.25019c3.30887-1.72907,7.02713-2.59362,11.15418-2.59362    c3.79232,0,7.17527,0.66947,10.15054,2.00783c2.97414,1.33865,5.4281,3.27241,7.36186,5.80044l-8.31006,7.41755    c-2.41719-3.04822-5.26187-4.57317-8.53286-4.57317c-2.75193,0-4.96388,0.88349-6.63697,2.64902    c-1.67309,1.76668-2.50992,4.13694-2.50992,7.1111c0,2.97528,0.83683,5.34554,2.50992,7.1108    c1.67309,1.76639,3.88505,2.64902,6.63697,2.64902c3.271,0,6.11565-1.52382,8.53286-4.57317l8.31006,7.41785    c-1.93376,2.52915-4.3877,4.46179-7.36186,5.80014c-2.97528,1.33892-6.35822,2.00783-10.15054,2.00783    C27.27989,65.05062,23.56166,64.18607,20.25276,62.45757z"/>
		<path class="st0" d="M90.74792,54.23118v9.9272H58.28845V25.1179h31.73458v9.92749H71.22766v4.57317h16.50877v9.48136H71.22767    v5.13124H90.7479L90.74792,54.23118z"/>
		<path class="st0" d="M106.50296,63.9633c-3.06744-0.72545-5.58699-1.70138-7.55751-2.92836l4.23901-9.59246    c1.85856,1.07883,3.94047,1.94338,6.24628,2.59306c2.30525,0.65137,4.51777,0.97593,6.63698,0.97593    c1.82124,0,3.12341-0.17585,3.90428-0.52982c0.78029-0.35282,1.171-0.88263,1.171-1.58941    c0-0.81703-0.51171-1.43052-1.534-1.84047c-1.02286-0.4088-2.70499-0.85493-5.047-1.33836    c-3.01203-0.63157-5.52139-1.31066-7.52922-2.03552c-2.00783-0.72545-3.75613-1.91454-5.24263-3.56955    c-1.48763-1.65388-2.23117-3.89466-2.23117-6.72065c0-2.45396,0.68755-4.68483,2.0638-6.69268    c1.37511-2.00783,3.42989-3.58763,6.16258-4.74055c2.73328-1.15206,6.0512-1.72907,9.95546-1.72907    c2.67731,0,5.30711,0.28864,7.89165,0.86455c2.584,0.57701,4.86096,1.42233,6.83205,2.53764l-3.95967,9.53705    c-3.83019-1.93291-7.45515-2.90007-10.87543-2.90007c-3.38409,0-5.07528,0.81818-5.07528,2.45396    c0,0.78085,0.50209,1.36635,1.50574,1.75677s2.65807,0.80884,4.96387,1.25497c2.97414,0.55751,5.48352,1.19926,7.52922,1.92415    c2.04402,0.72487,3.82002,1.90548,5.32631,3.54126c1.50574,1.63691,2.25833,3.86753,2.25833,6.69296    c0,2.45396-0.68813,4.67607-2.06325,6.6647c-1.37627,1.98975-3.42989,3.56955-6.16314,4.74055    c-2.73272,1.17156-6.0512,1.75677-9.9549,1.75677C112.72153,65.05063,109.5704,64.68819,106.50296,63.9633z"/>
		<path class="st0" d="M148.30383,60.19868c-3.34619-3.23481-5.01987-7.77066-5.01987-13.60868V25.1179h13.16257v21.08195    c0,2.86332,0.51057,4.94521,1.53343,6.24628c1.02229,1.30217,2.50034,1.95185,4.43408,1.95185    c1.93265,0,3.41066-0.64968,4.43408-1.95185c1.02228-1.30104,1.53343-3.38296,1.53343-6.24628V25.1179h12.93922V46.59    c0,5.83802-1.6731,10.37387-5.0193,13.60868c-3.34621,3.23481-8.01323,4.85192-13.99884,4.85192    C156.31592,65.0506,151.65002,63.43349,148.30383,60.19868z"/>
		<path class="st0" d="M209.65263,54.34255h-3.569v9.8158h-13.16257V25.1179h18.79536c3.60629,0,6.74838,0.59512,9.42566,1.78476    c2.67674,1.19023,4.74054,2.90007,6.19031,5.13097c1.45032,2.23089,2.17522,4.83384,2.17522,7.80798    c0,2.78867-0.63274,5.22455-1.89587,7.30644c-1.26485,2.08248-3.08665,3.73634-5.46596,4.96332l8.19868,12.04699h-14.05482    l-6.63696-9.81581L209.65263,54.34255z M214.89526,36.46743c-0.89224-0.79895-2.23059-1.19899-4.01508-1.19899h-4.79652v9.14635    h4.79652c1.78448,0,3.12285-0.39862,4.01508-1.1987c0.89281-0.79951,1.33893-1.92415,1.33893-3.37447    c0-1.45005-0.44612-2.5741-1.33893-3.37417V36.46743z"/>
	</g>
	<path class="st1" d="M226.41235,80.49557h-2.45912v-4.52782h2.45912c0.90668,0,1.59642,0.19551,2.06868,0.58649   c0.47174,0.39155,0.70787,0.95388,0.70787,1.68647c0,0.7205-0.23613,1.27625-0.70787,1.6678   C228.00876,80.29952,227.31903,80.49557,226.41235,80.49557 M226.5804,73.50807h-5.64589v13.04308h3.01872v-3.59644h2.62717   c1.15489,0,2.15819-0.18891,3.0094-0.56783c0.85066-0.37891,1.5058-0.92532,1.96544-1.63979   c0.45963-0.71446,0.68973-1.54971,0.68973-2.50636c0-0.96871-0.23009-1.80728-0.68973-2.51569   c-0.45964-0.70786-1.11481-1.25427-1.96544-1.63924c-0.85123-0.38496-1.85454-0.57771-3.0094-0.57771 M218.88503,75.93044v-2.42235   h-9.85684v13.04307h3.01817v-4.7513h6.03746v-2.42235h-6.03746v-3.44707C212.04636,75.93044,218.88501,75.93044,218.88503,75.93044   z M196.41348,78.57629c0.6458,0,1.19278,0.18947,1.63979,0.56839c0.44702,0.37891,0.7205,0.8847,0.81989,1.51841h-4.93802   c0.09941-0.64581,0.37288-1.15544,0.81989-1.52776c0.44759-0.37289,1.00003-0.55904,1.65849-0.55904 M201.6124,81.57634   c0-1.04395-0.22681-1.9594-0.68039-2.74854c-0.4536-0.7886-1.07745-1.39432-1.87262-1.81663   c-0.79518-0.42231-1.68317-0.63374-2.66451-0.63374c-1.00604,0-1.91602,0.22077-2.72987,0.66173   c-0.81332,0.44097-1.45306,1.05548-1.91876,1.84461c-0.46623,0.7886-0.69905,1.67384-0.69905,2.65518   c0,0.99399,0.23611,1.88198,0.70786,2.66451c0.47227,0.78256,1.14279,1.39432,2.01265,1.83529   c0.86931,0.44098,1.86934,0.66119,3.00005,0.66119c1.81332,0,3.19225-0.54037,4.13626-1.62056l-1.54642-1.67712   c-0.34763,0.33555-0.72379,0.58046-1.12743,0.73588c-0.40363,0.15543-0.86603,0.23284-1.38826,0.23284   c-0.75784,0-1.39104-0.17959-1.90012-0.54037c-0.50961-0.36024-0.83253-0.85065-0.96925-1.47176h7.58388   c0.03732-0.48491,0.056-0.74576,0.056-0.78255 M183.70601,84.31496c-0.74521,0-1.36028-0.25151-1.84464-0.75455   c-0.48434-0.50304-0.72653-1.17685-0.72653-2.02145c0-0.8446,0.24219-1.51897,0.72653-2.02199   c0.48438-0.50304,1.09941-0.75455,1.84464-0.75455c0.73259,0,1.3416,0.25151,1.82597,0.75455   c0.48434,0.50304,0.7271,1.17739,0.7271,2.02199c0,0.8446-0.24275,1.51842-0.7271,2.02145   C185.04761,84.06345,184.4386,84.31496,183.70601,84.31496 M186.20302,72.72552v4.86279   c-0.72046-0.80726-1.72105-1.21091-3.00003-1.21091c-0.94402,0-1.79796,0.21143-2.56238,0.63374   c-0.76387,0.42231-1.36302,1.02472-1.79794,1.80728c-0.43492,0.78255-0.65187,1.68922-0.65187,2.72053   c0,1.03132,0.21692,1.93744,0.65187,2.72054c0.43492,0.78256,1.03407,1.38497,1.79794,1.80728   c0.76442,0.42231,1.61836,0.63317,2.56238,0.63317c1.3663,0,2.40971-0.43438,3.13019-1.30424v1.15544h2.77654V72.72552   C189.10971,72.72552,186.20302,72.72552,186.20302,72.72552z M168.01709,86.55112h2.90669v-13.8256h-2.90669V86.55112z    M160.34039,84.74384c-0.50961,0-0.90994-0.10874-1.20155-0.32619c-0.29216-0.21746-0.43823-0.51236-0.43823-0.88525   c0-0.78255,0.59637-1.17355,1.78915-1.17355h1.99344v1.02472c-0.16147,0.44701-0.43492,0.78585-0.8199,1.0154   c-0.38495,0.23009-0.82593,0.34486-1.32292,0.34486 M160.56389,76.37741c-0.80725,0-1.59311,0.10543-2.35698,0.31686   c-0.76389,0.21143-1.41904,0.50961-1.96544,0.89403l1.04338,2.03133c0.35971-0.28555,0.79794-0.51236,1.3136-0.68041   c0.51514-0.1675,1.04012-0.25151,1.57445-0.25151c0.76993,0,1.34763,0.17134,1.73257,0.51236   c0.38496,0.34212,0.57773,0.82924,0.57773,1.46295h-2.31033c-1.46623,0-2.54974,0.26745-3.25156,0.80122   c-0.70183,0.53434-1.05275,1.26691-1.05275,2.19883c0,0.58376,0.14885,1.10545,0.44702,1.56509   c0.2982,0.45965,0.72981,0.81989,1.29492,1.08075c0.56508,0.26086,1.23286,0.39101,2.00333,0.39101   c1.49043,0,2.50911-0.46568,3.05606-1.39706v1.24824h2.72v-5.72059c0-1.49042-0.41626-2.60522-1.24825-3.34438   c-0.83253-0.73917-2.02473-1.10876-3.57777-1.10876 M152.36548,75.12913c0.5338,0,0.96928-0.15871,1.30424-0.47556   c0.33554-0.31632,0.50304-0.71722,0.50304-1.20156c0-0.44701-0.1675-0.81989-0.50304-1.11808   c-0.33498-0.29819-0.77046-0.44701-1.30424-0.44701c-0.53432,0-0.96872,0.15543-1.30424,0.46568   c-0.33553,0.31082-0.50302,0.6958-0.50302,1.15544s0.1675,0.8446,0.50302,1.15488c0.33553,0.31081,0.76993,0.46624,1.30424,0.46624    M150.91241,86.5511h2.90671V76.52621h-2.90672C150.9124,76.52621,150.9124,86.5511,150.91241,86.5511z M144.74481,86.69992   c1.05548,0,1.97806-0.22352,2.76721-0.67052c0.7886-0.44701,1.36302-1.06812,1.72327-1.8633l-2.25429-1.22957   c-0.50961,0.91929-1.26086,1.3784-2.25484,1.3784c-0.75783,0-1.38496-0.24822-1.88197-0.74521   c-0.49698-0.49644-0.74522-1.17355-0.74522-2.03079c0-0.85725,0.24821-1.53436,0.74522-2.03134   c0.49698-0.49644,1.12411-0.7452,1.88197-0.7452c0.98132,0,1.73315,0.45965,2.25484,1.37894l2.25429-1.21144   c-0.36024-0.81935-0.93466-1.44978-1.72327-1.89075c-0.78915-0.44098-1.71173-0.66172-2.76721-0.66172   c-1.06865,0-2.02805,0.22076-2.87868,0.66172c-0.8512,0.44098-1.51567,1.05273-1.994,1.83529   c-0.47835,0.78256-0.71721,1.67055-0.71721,2.66451c0,0.99396,0.23886,1.88197,0.71721,2.66451   c0.4783,0.78256,1.14278,1.39432,1.994,1.8353c0.85066,0.44097,1.81003,0.66118,2.87868,0.66118 M135.74521,75.12913   c0.53378,0,0.96872-0.15871,1.30424-0.47556c0.33553-0.31632,0.50304-0.71722,0.50304-1.20156   c0-0.44701-0.1675-0.81989-0.50304-1.11808s-0.77046-0.44701-1.30424-0.44701c-0.53433,0-0.96872,0.15543-1.30423,0.46568   c-0.33556,0.31082-0.50304,0.6958-0.50304,1.15544s0.16748,0.8446,0.50304,1.15488   c0.33551,0.31081,0.76993,0.46624,1.30423,0.46624 M134.29158,86.5511h2.90669V76.52621h-2.90669V86.5511z M128.77638,76.32137   c0-0.96871,0.44098-1.45306,1.32294-1.45306c0.44701,0,0.83856,0.11806,1.1741,0.35365l0.7639-2.10546   c-0.26086-0.17353-0.58707-0.30753-0.97861-0.40034c-0.39102-0.09336-0.80397-0.14004-1.23892-0.14004   c-1.22957,0-2.18345,0.33555-2.86001,1.00606c-0.67711,0.67107-1.0154,1.57772-1.0154,2.72053v0.44757h-1.54698v2.23563h1.54698   v7.5652h2.90669v-7.5652h2.49648v-2.23563h-2.57115C128.7764,76.75027,128.7764,76.32139,128.77638,76.32137z M116.29236,84.20345   c-0.77047,0-1.4657-0.17738-2.08679-0.53104c-0.62111-0.35421-1.10876-0.8479-1.46295-1.48161   c-0.35365-0.63317-0.53103-1.35368-0.53103-2.1615c0-0.80726,0.17738-1.52776,0.53103-2.16149   c0.35421-0.63317,0.84187-1.12687,1.46295-1.48109c0.6211-0.35421,1.31633-0.53103,2.08679-0.53103   c0.76993,0,1.4657,0.17683,2.0868,0.53103c0.6211,0.35422,1.10875,0.84791,1.46294,1.48109   c0.35419,0.63373,0.53104,1.35423,0.53104,2.16149c0,0.8078-0.17684,1.5283-0.53104,2.1615   c-0.35421,0.63373-0.84187,1.12742-1.46294,1.48161C117.75805,84.02607,117.06228,84.20345,116.29236,84.20345 M116.29236,86.77462   c1.35367,0,2.57172-0.29161,3.65246-0.8759c1.08018-0.58376,1.9314-1.38772,2.55248-2.41299   c0.6211-1.02472,0.93192-2.17687,0.93192-3.45641c0-1.279-0.31083-2.43167-0.93192-3.45641   c-0.62111-1.02472-1.4723-1.8287-2.55248-2.413c-1.08074-0.58376-2.29879-0.87536-3.65246-0.87536   c-1.35423,0-2.57446,0.29161-3.66123,0.87536c-1.08734,0.5843-1.93797,1.38828-2.55304,2.413   c-0.6145,1.02471-0.92204,2.17741-0.92204,3.45641c0,1.27954,0.30753,2.43167,0.92204,3.45641   c0.61504,1.02528,1.4657,1.82925,2.55304,2.41299C113.7179,86.48303,114.93813,86.77462,116.29236,86.77462 M97.06303,84.31493   c-0.74519,0-1.36026-0.2515-1.84461-0.75454s-0.72653-1.17686-0.72653-2.02145s0.24219-1.51897,0.72653-2.02199   c0.48434-0.50302,1.09942-0.75455,1.84461-0.75455c0.74577,0,1.35699,0.25151,1.83584,0.75455   c0.47777,0.50304,0.71721,1.17739,0.71721,2.02199s-0.23944,1.51841-0.71721,2.02145   C98.42001,84.06343,97.80879,84.31493,97.06303,84.31493 M97.06303,86.69992c1.05605,0,2.00004-0.2202,2.83257-0.66118   c0.83196-0.44098,1.48436-1.05273,1.9561-1.83529c0.47227-0.78256,0.70844-1.67055,0.70844-2.66451   c0-0.99396-0.23615-1.88197-0.70843-2.66451c-0.47171-0.78256-1.12411-1.39432-1.9561-1.8353   c-0.83253-0.44097-1.77653-0.66172-2.83257-0.66172s-2.00278,0.22077-2.84135,0.66172   c-0.83856,0.44098-1.49371,1.05274-1.96598,1.8353c-0.47227,0.78255-0.70787,1.67055-0.70787,2.66451   c0,0.99397,0.2356,1.88197,0.70787,2.66451c0.47227,0.78255,1.12743,1.39431,1.96598,1.83529   C95.06025,86.47972,96.00701,86.69992,97.06303,86.69992 M87.20621,77.84914v-1.32293h-2.77654V86.5511h2.90669v-4.73264   c0-0.93192,0.23612-1.63045,0.7084-2.09615c0.47174-0.46625,1.12411-0.69908,1.95611-0.69908   c0.11203,0,0.32895,0.01263,0.6524,0.03734v-2.6832c-0.77047,0-1.45031,0.1241-2.04066,0.37289   c-0.58981,0.24821-1.05878,0.6145-1.40641,1.09887 M82.00732,84.01672c-0.32291,0.24876-0.71446,0.37288-1.17355,0.37288   c-0.39815,0-0.70512-0.11478-0.9226-0.34486c-0.21746-0.22955-0.3262-0.55576-0.3262-0.97804v-4.0808h2.49702v-2.23563h-2.49702   v-2.44101h-2.90669v2.44101h-1.54642v2.23563h1.54642v4.11814c0,1.18014,0.3262,2.07473,0.97861,2.6832   c0.65184,0.60847,1.57444,0.91269,2.76665,0.91269c0.45964,0,0.89733-0.05271,1.31358-0.15814s0.76718-0.2636,1.05273-0.47503   C82.78986,86.06675,82.0073,84.01675,82.00732,84.01672z M69.54198,76.37739c-0.68316,0-1.31084,0.11478-1.88197,0.34487   c-0.57167,0.23009-1.04999,0.55575-1.43496,0.97804v-1.17411h-2.776v10.02489h2.90669v-4.95616   c0-0.89458,0.21693-1.56841,0.65185-2.02199c0.43494-0.45305,1.01868-0.67986,1.75182-0.67986   c0.65844,0,1.16147,0.1955,1.50909,0.58649c0.34762,0.39155,0.52171,0.98463,0.52171,1.77982v5.29169h2.90669v-5.73926   c0-1.46516-0.38166-2.57117-1.14555-3.31638c-0.76387-0.7452-1.7672-1.11808-3.00938-1.11808 M56.31274,78.57619   c0.64526,0,1.19221,0.18947,1.63925,0.56839c0.44757,0.37891,0.7205,0.8847,0.81989,1.51841h-4.93749   c0.0994-0.64581,0.37234-1.15544,0.81989-1.52776C55.10129,78.76235,55.65376,78.57619,56.31274,78.57619 M61.51108,81.57625   c0-1.04395-0.2268-1.95939-0.67985-2.74854c-0.45361-0.7886-1.078-1.39432-1.87263-1.81663   c-0.79519-0.42231-1.68372-0.63374-2.66451-0.63374c-1.00661,0-1.91656,0.22077-2.72985,0.66173   c-0.81386,0.44097-1.45363,1.05548-1.91931,1.84461c-0.46568,0.7886-0.69852,1.67384-0.69852,2.65519   c0,0.99398,0.23559,1.88197,0.70787,2.66451c0.47174,0.78256,1.14281,1.39432,2.0121,1.83529   c0.86932,0.44098,1.86988,0.66119,3.00005,0.66119c1.81388,0,3.19225-0.54037,4.13681-1.62056l-1.54643-1.67712   c-0.34816,0.33554-0.72379,0.58045-1.12743,0.73587c-0.40418,0.15543-0.86657,0.23284-1.38828,0.23284   c-0.75784,0-1.39157-0.17958-1.90064-0.54037c-0.50961-0.36024-0.83253-0.85065-0.96872-1.47175h7.58333   c0.03734-0.48491,0.05603-0.74577,0.05603-0.78256 M44.83481,86.77454c1.13017,0,2.15489-0.19879,3.07418-0.59637   c0.91929-0.39704,1.68922-0.97475,2.31086-1.73258l-1.93798-1.78861c-0.88249,1.03078-1.97533,1.54642-3.27958,1.54642   c-0.8078,0-1.52776-0.17738-2.16149-0.53103c-0.63317-0.35422-1.12743-0.8479-1.48108-1.48162   c-0.35421-0.63317-0.53103-1.35367-0.53103-2.16149c0-0.80726,0.17684-1.52776,0.53103-2.1615   c0.35365-0.63317,0.84791-1.12686,1.48108-1.48108c0.63373-0.35422,1.35367-0.53103,2.16149-0.53103   c1.30424,0,2.39708,0.50961,3.27958,1.52776l1.93798-1.78861c-0.62164-0.7452-1.38828-1.31633-2.30151-1.71448   c-0.91269-0.39704-1.93469-0.59584-3.06486-0.59584c-1.3416,0-2.54976,0.28831-3.62445,0.86604   c-1.07469,0.57773-1.91931,1.37894-2.53381,2.40366c-0.61507,1.02528-0.92258,2.18345-0.92258,3.47508   c0,1.29217,0.30753,2.45033,0.92258,3.47508c0.6145,1.02528,1.45912,1.82651,2.53381,2.40366   c1.07471,0.57771,2.27627,0.86658,3.60578,0.86658 M27.50611,76.52616v4.9567c0,0.89458-0.21142,1.56841-0.63373,2.02145   c-0.42231,0.45361-0.98135,0.68041-1.67658,0.68041c-1.35423,0-2.03134-0.80726-2.03134-2.42235v-5.23621h-2.90669v5.66456   c0,1.49097,0.38495,2.6151,1.15544,3.37294c0.76993,0.75784,1.81332,1.13621,3.13021,1.13621   c0.6211,0,1.19881-0.11478,1.73315-0.34433c0.53377-0.23009,0.99342-0.56178,1.37839-0.99727v1.19278h2.75787V76.52616   C30.41283,76.52616,27.50614,76.52616,27.50611,76.52616z M11.92863,86.55114h3.01872V75.96775h4.1736v-2.45968H7.75503v2.45968   h4.1736V86.55114z"/>
</g>
</svg></svg>
